<?xml version="1.0" encoding="UTF-8"?>
<svg id="_レイヤー_2" data-name="レイヤー 2" xmlns="http://www.w3.org/2000/svg" viewBox="0 0 163.71 44.66">
  <defs>
    <style>
      .cls-1 {
        fill: #251e1c;
      }
    </style>
  </defs>
  <g id="_レイヤー_1-2" data-name="レイヤー 1">
    <g>
      <g>
        <path class="cls-1" d="M13.76,26.49h7.3v18.24h-1.22c-3.36,0-6.08-2.72-6.08-6.08v-12.16h0Z" transform="translate(53.02 18.2) rotate(90)"/>
        <path class="cls-1" d="M0,0h1.22C4.57,0,7.3,2.72,7.3,6.08v33.18H0V0H0Z"/>
        <rect class="cls-1" x="20.88" y="1.93" width="4.87" height="4" transform="translate(27.25 -19.38) rotate(90)"/>
        <path class="cls-1" d="M8.28,0h1.25C11.88,0,13.79,1.91,13.79,4.26v26.59h-1.25c-2.35,0-4.26-1.91-4.26-4.26V0h0Z"/>
        <path class="cls-1" d="M20.62,22.19h0c1.52,0,2.75,1.23,2.75,2.75v9.06h-1.25c-2.35,0-4.26-1.91-4.26-4.26v-4.81c0-1.52,1.23-2.75,2.75-2.75Z" transform="translate(48.71 7.48) rotate(90)"/>
      </g>
      <g>
        <path class="cls-1" d="M46.8.9c.95,0,1.66.24,2.15.73s.73,1.17.73,2.04-.24,1.56-.73,2.05c-.49.49-1.2.73-2.15.72h-2.86v3.84h-1.25V.9h4.11ZM46.38,5.39c.71,0,1.23-.14,1.56-.43.33-.3.49-.73.49-1.29s-.16-.99-.49-1.28c-.33-.29-.85-.44-1.56-.44h-2.44v3.44h2.44Z"/>
        <path class="cls-1" d="M50.52,5.49c.14-.43.35-.81.63-1.13s.63-.57,1.04-.76c.41-.18.88-.28,1.42-.28s1.02.09,1.43.28c.41.18.75.44,1.03.76s.49.7.63,1.13c.14.43.21.9.21,1.4s-.07.96-.21,1.39c-.14.43-.35.8-.63,1.12-.28.32-.62.57-1.03.75s-.88.27-1.43.27-1.01-.09-1.42-.27c-.41-.18-.76-.43-1.04-.75-.28-.32-.49-.69-.63-1.12-.14-.43-.21-.89-.21-1.39s.07-.97.21-1.4ZM51.66,7.99c.11.32.26.59.45.8.19.21.42.38.68.49.26.11.53.17.82.17s.56-.06.82-.17c.26-.11.48-.28.68-.49s.34-.48.45-.8c.11-.32.17-.69.17-1.1s-.06-.78-.17-1.1c-.11-.32-.26-.59-.45-.81s-.42-.39-.68-.5c-.26-.11-.53-.17-.82-.17s-.56.06-.82.17c-.26.11-.48.28-.68.5-.19.22-.34.49-.45.81-.11.32-.16.69-.16,1.1s.05.78.16,1.1Z"/>
        <path class="cls-1" d="M59.01,8.76c.1.17.24.31.41.41.17.1.36.17.58.22.21.04.44.07.66.07.17,0,.36-.01.55-.04s.37-.07.53-.14.3-.17.4-.31c.11-.14.16-.31.16-.52,0-.29-.11-.51-.33-.66-.22-.15-.49-.27-.82-.36-.33-.09-.69-.18-1.07-.25-.39-.07-.74-.18-1.07-.32-.33-.14-.6-.33-.82-.57-.22-.25-.33-.59-.33-1.03,0-.34.08-.63.23-.88.15-.25.35-.44.59-.6s.51-.27.81-.34c.3-.07.6-.11.9-.11.38,0,.74.03,1.06.1.32.07.61.18.86.34.25.16.45.38.6.66.15.28.24.62.26,1.03h-1.12c-.02-.22-.07-.4-.17-.54-.1-.14-.22-.26-.37-.35-.15-.09-.31-.15-.49-.19-.18-.04-.36-.06-.54-.06-.17,0-.33.01-.51.04s-.33.07-.47.14c-.14.07-.25.15-.34.26-.09.11-.13.25-.13.43,0,.19.07.35.2.48.13.13.31.23.52.32s.45.15.71.21c.26.06.53.12.79.18.28.06.55.14.82.22.27.09.5.2.71.35s.37.33.5.54c.13.22.19.49.19.81,0,.41-.09.75-.26,1.03s-.39.49-.67.66c-.28.17-.59.28-.93.35-.35.07-.69.1-1.03.1-.38,0-.74-.04-1.08-.12-.34-.08-.64-.21-.91-.39s-.47-.42-.63-.71c-.16-.29-.25-.65-.26-1.07h1.12c0,.25.07.45.17.62Z"/>
        <path class="cls-1" d="M67.54,3.49v.99h-1.35v4.22c0,.13.01.24.03.32.02.08.06.14.12.18.06.04.15.07.26.09.11.01.25.02.43.02h.51v.99h-.85c-.29,0-.54-.02-.74-.06-.21-.04-.37-.11-.5-.22-.13-.1-.22-.25-.28-.45s-.09-.45-.09-.76v-4.32h-1.16v-.99h1.16V1.45h1.12v2.04h1.35Z"/>
        <path class="cls-1" d="M73.73.9v8.33h4.97v1.05h-6.21V.9h1.25Z"/>
        <path class="cls-1" d="M79.59,2.27V.9h1.12v1.37h-1.12ZM80.71,3.49v6.79h-1.12V3.49h1.12Z"/>
        <path class="cls-1" d="M83.45.9v3.51h.03c.18-.38.47-.65.87-.82s.83-.26,1.3-.26c.53,0,.98.1,1.37.29.39.19.71.45.97.78.26.33.45.71.58,1.14.13.43.2.88.2,1.37s-.06.94-.19,1.37c-.13.43-.32.8-.58,1.12-.26.32-.58.57-.97.75-.39.18-.84.28-1.36.28-.17,0-.35-.02-.56-.05s-.41-.09-.61-.17c-.2-.08-.39-.19-.57-.32s-.33-.3-.45-.51h-.03v.91h-1.12V.9h1.12ZM87.47,5.9c-.08-.3-.21-.57-.38-.81-.17-.24-.39-.42-.66-.57-.27-.14-.58-.21-.94-.21s-.7.07-.96.22c-.26.15-.48.34-.64.58-.17.24-.29.51-.36.82s-.11.62-.11.93c0,.33.04.66.12.97.08.31.2.58.37.82s.39.43.66.57.6.22.99.22.71-.07.97-.22c.26-.15.47-.35.62-.59.16-.25.27-.53.34-.84.07-.32.1-.64.1-.97s-.04-.62-.12-.93Z"/>
        <path class="cls-1" d="M91.05,3.49v1.43h.03c.27-.55.6-.96,1-1.22.39-.26.89-.38,1.5-.37v1.18c-.45,0-.83.06-1.14.18s-.57.3-.76.54c-.19.24-.33.52-.42.86-.09.34-.13.72-.13,1.16v3.02h-1.12V3.49h1.05Z"/>
        <path class="cls-1" d="M100.37,10.25c-.19.11-.46.17-.8.17-.29,0-.52-.08-.69-.24s-.26-.43-.26-.79c-.31.37-.66.63-1.07.79s-.85.24-1.32.24c-.31,0-.6-.04-.87-.11-.28-.07-.51-.18-.72-.33-.2-.15-.36-.34-.48-.58-.12-.24-.18-.53-.18-.87,0-.39.07-.7.2-.95.13-.25.3-.44.52-.6.21-.15.46-.27.74-.35.28-.08.56-.14.85-.2.31-.06.6-.11.87-.14.28-.03.52-.07.73-.13.21-.06.38-.14.5-.25.12-.11.18-.27.18-.48,0-.25-.05-.44-.14-.59-.09-.15-.21-.26-.36-.34-.14-.08-.31-.13-.49-.16-.18-.03-.36-.04-.53-.04-.47,0-.87.09-1.18.27s-.49.52-.51,1.02h-1.12c.02-.42.11-.78.26-1.06.16-.29.37-.52.63-.7s.56-.31.9-.39c.34-.08.7-.12,1.08-.12.31,0,.61.02.91.07s.58.13.82.27.44.33.59.57c.15.25.22.56.22.96v3.49c0,.26.02.46.05.58s.13.18.31.18c.1,0,.21-.02.34-.05v.87ZM98.56,6.77c-.14.1-.32.18-.55.23-.23.05-.47.09-.72.12-.25.03-.5.07-.76.1-.25.04-.48.1-.68.19-.2.09-.37.21-.49.37-.13.16-.19.38-.19.66,0,.18.04.34.11.46.07.13.17.23.29.31.12.08.26.14.41.17.16.03.32.05.5.05.37,0,.68-.05.95-.15s.48-.23.64-.38c.17-.15.29-.32.37-.5.08-.18.12-.35.12-.5v-1.14Z"/>
        <path class="cls-1" d="M102.4,3.49v1.43h.03c.27-.55.6-.96,1-1.22.39-.26.89-.38,1.5-.37v1.18c-.45,0-.83.06-1.14.18s-.57.3-.76.54c-.19.24-.33.52-.42.86-.09.34-.13.72-.13,1.16v3.02h-1.12V3.49h1.05Z"/>
        <path class="cls-1" d="M108.78,11.19c-.13.33-.26.61-.39.84-.13.23-.27.41-.42.56s-.32.25-.51.32-.41.1-.65.1c-.13,0-.26,0-.39-.03-.13-.02-.26-.05-.38-.09v-1.02c.1.04.21.08.33.11.13.03.23.05.32.05.23,0,.42-.05.57-.16s.27-.27.35-.47l.46-1.14-2.69-6.75h1.26l1.98,5.56h.03l1.91-5.56h1.18l-2.96,7.7Z"/>
      </g>
      <g>
        <path class="cls-1" d="M119.79,4.64v2.85l2.9-2.85h.98l-2.41,2.3,2.5,3.41h-.96l-2.06-2.89-.95.89v2h-.76v-5.71h.76Z"/>
        <path class="cls-1" d="M128,10.33c-.12.07-.28.1-.49.1-.18,0-.32-.05-.42-.15-.1-.1-.16-.26-.16-.48-.19.22-.4.39-.65.48s-.52.15-.8.15c-.19,0-.36-.02-.53-.06-.17-.04-.31-.11-.44-.2-.12-.09-.22-.21-.29-.36-.07-.15-.11-.32-.11-.53,0-.23.04-.43.12-.58s.18-.27.32-.36.28-.16.45-.21.34-.09.52-.12c.19-.04.36-.07.53-.08s.32-.04.44-.08c.13-.03.23-.08.3-.15.08-.07.11-.16.11-.29,0-.15-.03-.27-.08-.36s-.13-.16-.22-.21-.19-.08-.3-.1c-.11-.02-.22-.02-.32-.02-.29,0-.53.05-.72.16-.19.11-.3.32-.31.62h-.68c.01-.26.06-.47.16-.65.1-.18.22-.32.38-.43s.34-.19.55-.24.42-.07.66-.07c.19,0,.37.01.56.04.18.03.35.08.5.16.15.08.27.2.36.35.09.15.14.34.14.58v2.12c0,.16,0,.28.03.35.02.08.08.11.19.11.06,0,.13-.01.21-.03v.53ZM126.89,8.21c-.09.06-.2.11-.34.14-.14.03-.28.05-.44.07-.15.02-.31.04-.46.06-.15.02-.29.06-.42.12s-.22.13-.3.23c-.08.1-.12.23-.12.4,0,.11.02.21.07.28.04.08.1.14.18.19s.16.08.25.1.2.03.3.03c.22,0,.42-.03.58-.09s.29-.14.39-.23c.1-.09.18-.19.22-.3.05-.11.07-.21.07-.31v-.69Z"/>
        <path class="cls-1" d="M129.38,6.21v.66h.02c.28-.5.73-.75,1.34-.75.27,0,.5.04.68.11.18.08.33.18.44.31.11.13.19.29.24.48.04.18.07.39.07.61v2.72h-.68v-2.8c0-.26-.07-.46-.22-.61s-.35-.22-.62-.22c-.21,0-.39.03-.54.1-.15.06-.28.16-.38.27s-.18.25-.23.41-.08.33-.08.52v2.34h-.68v-4.14h.64Z"/>
        <path class="cls-1" d="M136.92,10.33c-.12.07-.28.1-.49.1-.18,0-.32-.05-.42-.15-.1-.1-.16-.26-.16-.48-.19.22-.4.39-.65.48s-.52.15-.8.15c-.19,0-.36-.02-.53-.06-.17-.04-.31-.11-.44-.2-.12-.09-.22-.21-.29-.36-.07-.15-.11-.32-.11-.53,0-.23.04-.43.12-.58s.18-.27.32-.36.28-.16.45-.21.34-.09.52-.12c.19-.04.36-.07.53-.08s.32-.04.44-.08c.13-.03.23-.08.3-.15.08-.07.11-.16.11-.29,0-.15-.03-.27-.08-.36s-.13-.16-.22-.21-.19-.08-.3-.1c-.11-.02-.22-.02-.32-.02-.29,0-.53.05-.72.16-.19.11-.3.32-.31.62h-.68c.01-.26.06-.47.16-.65.1-.18.22-.32.38-.43s.34-.19.55-.24.42-.07.66-.07c.19,0,.37.01.56.04.18.03.35.08.5.16.15.08.27.2.36.35.09.15.14.34.14.58v2.12c0,.16,0,.28.03.35.02.08.08.11.19.11.06,0,.13-.01.21-.03v.53ZM135.82,8.21c-.09.06-.2.11-.34.14-.14.03-.28.05-.44.07-.15.02-.31.04-.46.06-.15.02-.29.06-.42.12s-.22.13-.3.23c-.08.1-.12.23-.12.4,0,.11.02.21.07.28.04.08.1.14.18.19s.16.08.25.1.2.03.3.03c.22,0,.42-.03.58-.09s.29-.14.39-.23c.1-.09.18-.19.22-.3.05-.11.07-.21.07-.31v-.69Z"/>
        <path class="cls-1" d="M139.93,6.81h-2.34v-.6h3.22v.46l-2.53,3.07h2.64v.6h-3.49v-.52l2.5-3.02Z"/>
        <path class="cls-1" d="M145.41,10.33c-.12.07-.28.1-.49.1-.18,0-.32-.05-.42-.15-.1-.1-.16-.26-.16-.48-.19.22-.4.39-.65.48s-.52.15-.8.15c-.19,0-.36-.02-.53-.06-.17-.04-.31-.11-.44-.2-.12-.09-.22-.21-.29-.36-.07-.15-.11-.32-.11-.53,0-.23.04-.43.12-.58s.18-.27.32-.36.28-.16.45-.21.34-.09.52-.12c.19-.04.36-.07.53-.08s.32-.04.44-.08c.13-.03.23-.08.3-.15.08-.07.11-.16.11-.29,0-.15-.03-.27-.08-.36s-.13-.16-.22-.21-.19-.08-.3-.1c-.11-.02-.22-.02-.32-.02-.29,0-.53.05-.72.16-.19.11-.3.32-.31.62h-.68c.01-.26.06-.47.16-.65.1-.18.22-.32.38-.43s.34-.19.55-.24.42-.07.66-.07c.19,0,.37.01.56.04.18.03.35.08.5.16.15.08.27.2.36.35.09.15.14.34.14.58v2.12c0,.16,0,.28.03.35.02.08.08.11.19.11.06,0,.13-.01.21-.03v.53ZM144.3,8.21c-.09.06-.2.11-.34.14-.14.03-.28.05-.44.07-.15.02-.31.04-.46.06-.15.02-.29.06-.42.12s-.22.13-.3.23c-.08.1-.12.23-.12.4,0,.11.02.21.07.28.04.08.1.14.18.19s.16.08.25.1.2.03.3.03c.22,0,.42-.03.58-.09s.29-.14.39-.23c.1-.09.18-.19.22-.3.05-.11.07-.21.07-.31v-.69Z"/>
        <path class="cls-1" d="M149.39,10.35l-.84-3.29h-.02l-.83,3.29h-.74l-1.33-4.14h.75l.94,3.38h.02l.83-3.38h.74l.86,3.38h.02l.93-3.38h.7l-1.32,4.14h-.72Z"/>
        <path class="cls-1" d="M155.7,10.33c-.12.07-.28.1-.49.1-.18,0-.32-.05-.42-.15-.1-.1-.16-.26-.16-.48-.19.22-.4.39-.65.48s-.52.15-.8.15c-.19,0-.36-.02-.53-.06-.17-.04-.31-.11-.44-.2-.12-.09-.22-.21-.29-.36-.07-.15-.11-.32-.11-.53,0-.23.04-.43.12-.58s.18-.27.32-.36.28-.16.45-.21.34-.09.52-.12c.19-.04.36-.07.53-.08s.32-.04.44-.08c.13-.03.23-.08.3-.15.08-.07.11-.16.11-.29,0-.15-.03-.27-.08-.36s-.13-.16-.22-.21-.19-.08-.3-.1c-.11-.02-.22-.02-.32-.02-.29,0-.53.05-.72.16-.19.11-.3.32-.31.62h-.68c.01-.26.06-.47.16-.65.1-.18.22-.32.38-.43s.34-.19.55-.24.42-.07.66-.07c.19,0,.37.01.56.04.18.03.35.08.5.16.15.08.27.2.36.35.09.15.14.34.14.58v2.12c0,.16,0,.28.03.35.02.08.08.11.19.11.06,0,.13-.01.21-.03v.53ZM154.6,8.21c-.09.06-.2.11-.34.14-.14.03-.28.05-.44.07-.15.02-.31.04-.46.06-.15.02-.29.06-.42.12s-.22.13-.3.23c-.08.1-.12.23-.12.4,0,.11.02.21.07.28.04.08.1.14.18.19s.16.08.25.1.2.03.3.03c.22,0,.42-.03.58-.09s.29-.14.39-.23c.1-.09.18-.19.22-.3.05-.11.07-.21.07-.31v-.69Z"/>
      </g>
      <g>
        <path class="cls-1" d="M42.94,20.61h3.27v15.86h9.5v2.83h-12.78v-18.69Z"/>
        <path class="cls-1" d="M63.48,39.66c-1.08,0-2.05-.18-2.89-.54s-1.56-.85-2.15-1.48c-.58-.63-1.03-1.38-1.33-2.25-.31-.87-.46-1.83-.46-2.88s.15-1.98.46-2.85c.3-.87.75-1.62,1.33-2.25.58-.63,1.3-1.12,2.15-1.48.85-.36,1.81-.54,2.89-.54s2.05.18,2.89.54c.85.36,1.56.85,2.15,1.48.58.63,1.03,1.38,1.33,2.25.3.87.46,1.82.46,2.85s-.15,2.01-.46,2.88c-.31.87-.75,1.62-1.33,2.25-.58.63-1.3,1.12-2.15,1.48-.85.36-1.81.54-2.89.54ZM63.48,37.31c.66,0,1.24-.14,1.73-.42.49-.28.89-.65,1.2-1.1.31-.45.54-.96.69-1.53s.22-1.15.22-1.74-.07-1.15-.22-1.73-.38-1.09-.69-1.53c-.31-.45-.72-.81-1.2-1.09-.49-.28-1.07-.42-1.73-.42s-1.24.14-1.73.42-.89.64-1.2,1.09c-.31.44-.55.96-.69,1.53-.15.58-.22,1.15-.22,1.73s.07,1.17.22,1.74c.15.57.38,1.08.69,1.53s.72.82,1.2,1.1,1.06.42,1.73.42Z"/>
        <path class="cls-1" d="M85.08,38.59c0,2.04-.57,3.56-1.71,4.57-1.14,1-2.79,1.5-4.94,1.5-.68,0-1.37-.07-2.05-.21s-1.32-.38-1.88-.71c-.57-.33-1.04-.77-1.43-1.31s-.61-1.2-.68-1.99h2.98c.09.42.24.76.45,1.02.21.26.46.47.75.62s.61.24.96.29c.35.04.72.07,1.1.07,1.2,0,2.08-.3,2.64-.89.56-.59.84-1.45.84-2.57v-2.07h-.05c-.42.75-.99,1.33-1.71,1.75-.72.42-1.5.63-2.34.63-1.08,0-2-.19-2.76-.56-.76-.38-1.39-.89-1.89-1.54-.5-.65-.86-1.41-1.09-2.26-.23-.85-.34-1.77-.34-2.75,0-.91.14-1.77.42-2.59s.68-1.54,1.21-2.16c.52-.62,1.16-1.11,1.92-1.48.76-.37,1.62-.55,2.58-.55.86,0,1.64.18,2.36.54.72.36,1.26.92,1.65,1.69h.05v-1.86h2.98v12.83ZM78.46,36.94c.66,0,1.23-.13,1.69-.41.46-.27.84-.63,1.13-1.07s.5-.95.63-1.52.2-1.14.2-1.71-.07-1.13-.21-1.67-.35-1.02-.64-1.44-.66-.75-1.13-1c-.46-.24-1.02-.37-1.66-.37s-1.22.14-1.67.42c-.45.28-.82.64-1.1,1.09-.28.44-.48.95-.6,1.52-.12.57-.18,1.13-.18,1.69s.07,1.1.21,1.64.35,1.01.64,1.43.65.76,1.1,1.02c.44.26.98.39,1.61.39Z"/>
        <path class="cls-1" d="M95.53,20.61h3.27v15.86h9.5v2.83h-12.78v-18.69Z"/>
        <path class="cls-1" d="M112.23,33.3c0,.52.07,1.03.22,1.52.15.49.37.92.67,1.28.3.37.67.66,1.13.88.45.22.99.33,1.62.33.87,0,1.57-.19,2.11-.56.53-.38.93-.94,1.19-1.69h2.83c-.16.73-.43,1.39-.81,1.96s-.85,1.06-1.39,1.45c-.54.39-1.15.69-1.82.89-.67.2-1.38.3-2.11.3-1.07,0-2.01-.17-2.83-.52s-1.51-.84-2.08-1.47-.99-1.38-1.28-2.25c-.29-.87-.43-1.83-.43-2.88,0-.96.15-1.87.46-2.74.3-.86.74-1.62,1.31-2.28.57-.65,1.25-1.17,2.05-1.56.8-.38,1.71-.58,2.72-.58,1.06,0,2.02.22,2.87.67.85.45,1.55,1.03,2.11,1.77.56.73.96,1.58,1.22,2.53.25.95.32,1.93.2,2.95h-9.95ZM119.19,31.34c-.04-.47-.14-.92-.3-1.36-.17-.44-.39-.82-.68-1.14s-.64-.58-1.05-.79c-.41-.2-.87-.3-1.38-.3s-1,.09-1.43.28c-.43.18-.79.44-1.1.76-.31.32-.55.7-.73,1.14-.18.44-.28.91-.3,1.41h6.96Z"/>
        <path class="cls-1" d="M122.78,25.76h2.25v-4.06h2.98v4.06h2.7v2.22h-2.7v7.23c0,.31.01.58.04.81.03.23.09.42.18.58s.24.27.43.35c.19.08.45.12.79.12.21,0,.42,0,.63-.01.21,0,.42-.04.63-.09v2.3c-.33.04-.65.07-.97.1s-.64.05-.97.05c-.79,0-1.42-.07-1.9-.22-.48-.15-.85-.37-1.12-.65s-.45-.65-.55-1.09c-.1-.44-.15-.93-.17-1.49v-7.99h-2.25v-2.22Z"/>
        <path class="cls-1" d="M131.82,25.76h2.25v-4.06h2.98v4.06h2.7v2.22h-2.7v7.23c0,.31.01.58.04.81.03.23.09.42.18.58s.24.27.43.35c.19.08.45.12.79.12.21,0,.42,0,.63-.01.21,0,.42-.04.63-.09v2.3c-.33.04-.65.07-.97.1s-.64.05-.97.05c-.79,0-1.42-.07-1.9-.22-.48-.15-.85-.37-1.12-.65s-.45-.65-.55-1.09c-.1-.44-.15-.93-.17-1.49v-7.99h-2.25v-2.22Z"/>
        <path class="cls-1" d="M143.69,33.3c0,.52.07,1.03.22,1.52.15.49.37.92.67,1.28.3.37.67.66,1.13.88.45.22,1,.33,1.62.33.87,0,1.58-.19,2.11-.56.53-.38.93-.94,1.19-1.69h2.83c-.16.73-.43,1.39-.81,1.96s-.85,1.06-1.39,1.45c-.54.39-1.15.69-1.82.89s-1.37.3-2.11.3c-1.06,0-2.01-.17-2.83-.52s-1.51-.84-2.08-1.47c-.57-.63-1-1.38-1.28-2.25-.29-.87-.43-1.83-.43-2.88,0-.96.15-1.87.46-2.74.31-.86.74-1.62,1.31-2.28.57-.65,1.25-1.17,2.06-1.56.8-.38,1.71-.58,2.72-.58,1.06,0,2.02.22,2.87.67s1.55,1.03,2.11,1.77c.56.73.96,1.58,1.22,2.53.25.95.32,1.93.2,2.95h-9.95ZM150.65,31.34c-.04-.47-.14-.92-.3-1.36s-.39-.82-.68-1.14-.64-.58-1.05-.79c-.41-.2-.87-.3-1.37-.3s-1,.09-1.43.28c-.43.18-.79.44-1.1.76-.31.32-.55.7-.73,1.14-.18.44-.28.91-.3,1.41h6.96Z"/>
        <path class="cls-1" d="M155.78,25.76h2.8v2.62h.05c.09-.37.26-.72.51-1.07.25-.35.56-.67.92-.96.36-.29.75-.52,1.19-.69.44-.17.88-.26,1.33-.26.35,0,.59,0,.72.03.13.02.27.04.41.05v2.88c-.21-.04-.42-.07-.64-.09-.22-.03-.43-.04-.64-.04-.51,0-.98.1-1.43.3-.45.2-.83.5-1.17.89-.33.39-.59.88-.79,1.45-.19.58-.29,1.24-.29,1.99v6.44h-2.98v-13.53Z"/>
      </g>
    </g>
  </g>
</svg>